<svg width="24" height="24" viewBox="0 0 24 24" fill="none" xmlns="http://www.w3.org/2000/svg">
<path d="M4.03617 10.3631C4.3723 9.26875 5.0031 8.28803 5.85947 7.52832C5.39362 7.15567 5.85947 4.83997 5.85947 4.83997C5.85947 4.83997 7.72267 5.66497 8.05537 6.05102C8.05537 6.05102 9.49272 4.30762 13.6583 4.30762C17.8239 4.30762 21.75 7.52832 21.75 11.827C21.75 16.1257 18.6358 17.4965 18.6358 17.4965C18.4734 18.2549 18.2233 18.9919 17.8905 19.6924H16.24C15.9767 19.2874 15.7412 18.865 15.535 18.4281C15.535 18.4281 14.2175 18.5878 13.2725 18.5878C12.6066 18.5743 11.9431 18.503 11.2895 18.3749C11.2332 18.843 11.0741 19.2929 10.8237 19.6924H9.02692C8.46797 19.2133 8.18847 17.7095 8.18847 17.7095C8.18847 17.7095 3.66352 15.66 2.70527 14.4355C2.18627 13.464 2.25277 11.308 2.25277 11.308C2.75592 10.8446 3.37023 10.5192 4.03617 10.3631Z" stroke="black" stroke-width="1.25" stroke-linecap="round" stroke-linejoin="round"/>
<path d="M9.77222 6.88946C10.8384 6.1229 12.1341 5.74266 13.4454 5.81146C14.8783 5.78782 16.2799 6.23167 17.438 7.07581" stroke="black" stroke-width="1.25" stroke-linecap="round" stroke-linejoin="round"/>
<path d="M5.80615 11.0175C6.01326 11.0175 6.18115 10.8496 6.18115 10.6425C6.18115 10.4354 6.01326 10.2675 5.80615 10.2675C5.59905 10.2675 5.43115 10.4354 5.43115 10.6425C5.43115 10.8496 5.59905 11.0175 5.80615 11.0175Z" fill="black"/>
</svg>
