<svg width="161" height="42" viewBox="0 0 161 42" fill="none" xmlns="http://www.w3.org/2000/svg">
<path d="M1.92649 8.54545H9.54545L16.0085 24.3054H16.3068L22.7699 8.54545H30.3889V34H24.3981V18.3643H24.1868L18.0717 33.8384H14.2436L8.12855 18.2773H7.91726V34H1.92649V8.54545ZM58.2515 21.2727C58.2515 24.0734 57.7129 26.4473 56.6357 28.3945C55.5586 30.3417 54.1002 31.8208 52.2607 32.8317C50.4295 33.8426 48.3746 34.348 46.096 34.348C43.809 34.348 41.75 33.8384 39.9188 32.8192C38.0876 31.8001 36.6334 30.321 35.5562 28.3821C34.4873 26.4349 33.9529 24.0651 33.9529 21.2727C33.9529 18.4721 34.4873 16.0981 35.5562 14.1509C36.6334 12.2037 38.0876 10.7247 39.9188 9.71378C41.75 8.70289 43.809 8.19744 46.096 8.19744C48.3746 8.19744 50.4295 8.70289 52.2607 9.71378C54.1002 10.7247 55.5586 12.2037 56.6357 14.1509C57.7129 16.0981 58.2515 18.4721 58.2515 21.2727ZM51.9624 21.2727C51.9624 19.6155 51.7263 18.2152 51.254 17.0717C50.79 15.9283 50.1188 15.0624 49.2405 14.4741C48.3705 13.8858 47.3223 13.5916 46.096 13.5916C44.8779 13.5916 43.8298 13.8858 42.9514 14.4741C42.0731 15.0624 41.3978 15.9283 40.9255 17.0717C40.4615 18.2152 40.2295 19.6155 40.2295 21.2727C40.2295 22.9299 40.4615 24.3303 40.9255 25.4737C41.3978 26.6172 42.0731 27.4831 42.9514 28.0714C43.8298 28.6597 44.8779 28.9538 46.096 28.9538C47.3223 28.9538 48.3705 28.6597 49.2405 28.0714C50.1188 27.4831 50.79 26.6172 51.254 25.4737C51.7263 24.3303 51.9624 22.9299 51.9624 21.2727ZM85.8687 21.2727C85.8687 24.0734 85.3301 26.4473 84.2529 28.3945C83.1758 30.3417 81.7174 31.8208 79.8779 32.8317C78.0467 33.8426 75.9918 34.348 73.7132 34.348C71.4262 34.348 69.3672 33.8384 67.536 32.8192C65.7048 31.8001 64.2506 30.321 63.1734 28.3821C62.1045 26.4349 61.57 24.0651 61.57 21.2727C61.57 18.4721 62.1045 16.0981 63.1734 14.1509C64.2506 12.2037 65.7048 10.7247 67.536 9.71378C69.3672 8.70289 71.4262 8.19744 73.7132 8.19744C75.9918 8.19744 78.0467 8.70289 79.8779 9.71378C81.7174 10.7247 83.1758 12.2037 84.2529 14.1509C85.3301 16.0981 85.8687 18.4721 85.8687 21.2727ZM79.5796 21.2727C79.5796 19.6155 79.3435 18.2152 78.8712 17.0717C78.4072 15.9283 77.736 15.0624 76.8577 14.4741C75.9877 13.8858 74.9395 13.5916 73.7132 13.5916C72.4951 13.5916 71.4469 13.8858 70.5686 14.4741C69.6903 15.0624 69.015 15.9283 68.5427 17.0717C68.0787 18.2152 67.8467 19.6155 67.8467 21.2727C67.8467 22.9299 68.0787 24.3303 68.5427 25.4737C69.015 26.6172 69.6903 27.4831 70.5686 28.0714C71.4469 28.6597 72.4951 28.9538 73.7132 28.9538C74.9395 28.9538 75.9877 28.6597 76.8577 28.0714C77.736 27.4831 78.4072 26.6172 78.8712 25.4737C79.3435 24.3303 79.5796 22.9299 79.5796 21.2727ZM111.124 8.54545V34H105.904L95.7746 19.3089H95.613V34H89.4607V8.54545H94.7554L104.773 23.2116H104.984V8.54545H111.124ZM114.993 34V8.54545H132.741V13.5419H121.145V18.7621H131.834V23.771H121.145V29.0036H132.741V34H114.993ZM135.327 8.54545H142.2L147.582 19.1971H147.805L153.187 8.54545H160.06L150.751 25.4986V34H144.636V25.4986L135.327 8.54545Z" fill="#443535"/>
<rect x="67" y="19" width="14" height="3" fill="#86B188"/>
<rect x="39" y="19" width="14" height="3" fill="#86B188"/>
</svg>
