<svg width="20" height="14" viewBox="0 0 20 14" fill="none" xmlns="http://www.w3.org/2000/svg">
<path d="M17.2278 0C18.6904 0 19.8862 1.1417 19.9728 2.58248L19.9778 2.75V11.2551C19.9778 12.7176 18.8361 13.9135 17.3954 14.0001L17.2278 14.0051H2.75C1.28747 14.0051 0.0915959 12.8634 0.00501895 11.4226L0 11.2551V2.75C0 1.28747 1.1417 0.0915956 2.58248 0.00501871L2.75 0H17.2278ZM18.477 5.974H1.499L1.5 11.2551C1.5 11.9023 1.99187 12.4346 2.62219 12.4986L2.75 12.5051H17.2278C17.875 12.5051 18.4074 12.0132 18.4714 11.3829L18.4778 11.2551L18.477 5.974ZM16.2419 9.47929C16.6561 9.47929 16.9919 9.81508 16.9919 10.2293C16.9919 10.609 16.7097 10.9228 16.3436 10.9724L16.2419 10.9793H13.7419C13.3276 10.9793 12.9919 10.6435 12.9919 10.2293C12.9919 9.8496 13.274 9.5358 13.6401 9.48614L13.7419 9.47929H16.2419ZM17.2278 1.5H2.75C2.10279 1.5 1.57047 1.99187 1.50645 2.62219L1.5 2.75L1.499 4.474H18.477L18.4778 2.75C18.4778 2.10279 17.986 1.57047 17.3556 1.50645L17.2278 1.5Z" fill="#212121"/>
</svg>
